<?xml version="1.0" standalone="no"?>
<!DOCTYPE svg PUBLIC "-//W3C//DTD SVG 20010904//EN"
 "http://www.w3.org/TR/2001/REC-SVG-20010904/DTD/svg10.dtd">
<svg version="1.0" xmlns="http://www.w3.org/2000/svg"
 width="1200.000000pt" height="1200.000000pt" viewBox="0 0 1200.000000 1200.000000"
 preserveAspectRatio="xMidYMid meet">

<g transform="translate(0.000000,1200.000000) scale(0.100000,-0.100000)"
fill="#000000" stroke="none">
<path d="M3954 9174 c-113 -68 -178 -148 -225 -275 -32 -87 -39 -139 -15 -120
7 6 24 12 38 13 28 2 88 -20 88 -33 0 -5 -21 -29 -46 -54 -26 -25 -44 -45 -40
-45 10 0 89 50 114 73 l22 21 -30 27 c-40 37 -42 94 -5 137 30 36 69 45 114
26 19 -8 35 -13 36 -12 11 12 27 100 32 181 7 114 6 115 -83 61z"/>
<path d="M7960 9145 c0 -93 26 -210 62 -278 38 -71 132 -161 215 -204 33 -18
64 -33 68 -33 12 0 -4 173 -21 232 -27 89 -73 169 -133 228 -54 54 -152 120
-178 120 -9 0 -13 -20 -13 -65z"/>
<path d="M4485 9053 c-110 -15 -243 -77 -362 -170 -94 -73 -113 -97 -85 -112
35 -19 173 -41 254 -41 174 0 319 67 461 213 60 62 75 82 64 89 -38 21 -237
34 -332 21z"/>
<path d="M7252 9049 c-91 -16 -91 -17 -17 -97 80 -86 181 -155 278 -190 64
-23 87 -26 202 -26 89 0 148 6 187 17 96 27 96 27 32 83 -118 102 -216 161
-329 196 -71 22 -272 32 -353 17z"/>
<path d="M3347 8937 c-89 -178 -99 -358 -29 -537 24 -64 85 -169 104 -181 5
-3 10 -10 10 -15 0 -5 3 -15 7 -23 7 -12 13 -3 48 87 4 8 -6 12 -32 12 -84 0
-126 102 -69 169 16 19 35 31 51 31 20 0 23 4 18 20 -10 31 9 24 48 -19 19
-22 38 -37 41 -33 10 10 6 78 -5 89 -9 9 -16 9 -30 0 -23 -14 -36 -2 -19 18
11 13 9 20 -10 40 -26 28 -8 36 20 10 10 -9 25 -13 34 -9 45 17 -8 217 -90
336 -25 38 -50 70 -54 73 -4 2 -23 -28 -43 -68z"/>
<path d="M8567 8953 c-150 -207 -164 -447 -40 -725 l26 -58 27 39 c109 150
165 353 142 509 -16 104 -86 282 -111 282 -5 0 -25 -21 -44 -47z"/>
<path d="M3881 8915 c-23 -20 -31 -35 -31 -60 0 -52 18 -52 71 1 49 50 61 74
35 74 -8 0 -21 2 -29 6 -8 3 -28 -7 -46 -21z"/>
<path d="M3932 8843 c-33 -36 -48 -61 -42 -67 6 -6 15 -5 24 3 20 17 80 111
74 116 -3 3 -28 -21 -56 -52z"/>
<path d="M3711 8749 c-18 -17 -21 -30 -20 -70 l3 -50 59 59 c34 34 57 65 53
71 -12 19 -70 13 -95 -10z"/>
<path d="M4096 8644 c-149 -27 -261 -86 -387 -203 -44 -40 -78 -75 -76 -77 14
-14 127 -35 212 -41 160 -9 305 28 421 108 77 52 196 180 182 194 -7 8 -199
35 -238 34 -19 0 -70 -7 -114 -15z"/>
<path d="M7646 8645 c-49 -8 -91 -17 -94 -19 -18 -18 124 -162 211 -214 154
-93 374 -117 571 -61 l39 11 -58 58 c-183 185 -421 265 -669 225z"/>
<path d="M3540 8570 c0 -5 5 -10 10 -10 6 0 10 5 10 10 0 6 -4 10 -10 10 -5 0
-10 -4 -10 -10z"/>
<path d="M3402 8437 c-49 -52 -10 -137 63 -137 39 0 52 19 62 91 4 30 1 39
-18 53 -34 23 -81 20 -107 -7z"/>
<path d="M2885 8345 c-21 -37 -49 -99 -64 -138 -23 -66 -26 -85 -25 -222 0
-137 2 -157 28 -235 30 -90 121 -276 160 -324 l22 -29 41 79 c77 151 113 271
113 379 l0 61 -75 74 c-77 77 -90 96 -55 85 15 -5 20 -2 20 14 0 11 11 33 25
50 l26 30 -25 48 c-28 55 -126 185 -143 190 -6 2 -28 -26 -48 -62z"/>
<path d="M9026 8366 c-20 -24 -36 -47 -36 -50 0 -3 21 -25 47 -50 26 -24 44
-48 40 -52 -4 -4 -29 14 -56 40 l-48 48 -21 -34 c-60 -99 -63 -107 -56 -171 5
-54 3 -65 -16 -90 -12 -15 -26 -25 -31 -22 -5 4 -9 -12 -9 -34 0 -25 5 -41 12
-41 9 0 9 -3 0 -12 -44 -44 26 -310 121 -462 l25 -40 35 55 c84 131 148 293
168 423 21 135 -11 367 -50 358 -8 -2 -10 4 -6 17 6 21 -42 128 -68 149 -12
10 -21 4 -51 -32z m69 -61 c11 -2 23 -4 28 -4 4 -1 7 -6 7 -11 0 -21 -75 4
-99 34 -23 27 -1 37 22 10 12 -14 31 -27 42 -29z m-146 -155 c34 -33 37 -40
19 -40 -16 0 -58 41 -58 57 0 18 3 17 39 -17z"/>
<path d="M3937 8199 c-97 -11 -104 -14 -82 -39 10 -11 13 -20 8 -20 -6 0 -14
7 -17 16 -19 50 -222 -43 -355 -162 -69 -62 -191 -227 -191 -259 0 -3 54 -5
121 -5 151 0 236 18 359 77 81 39 107 58 185 137 85 86 191 239 179 258 -6 10
-115 8 -207 -3z m-2 -127 c-3 -3 -6 -3 -7 -1 -2 2 -14 18 -28 34 l-25 30 32
-29 c18 -16 31 -32 28 -34z m41 -34 l19 -23 -25 20 c-14 11 -27 21 -29 22 -2
2 0 3 6 3 5 0 18 -10 29 -22z"/>
<path d="M7857 8204 c-16 -16 100 -189 179 -268 141 -140 314 -206 545 -206
140 0 135 -7 62 103 -137 206 -352 339 -591 367 -99 11 -186 13 -195 4z"/>
<path d="M3086 8121 c-9 -9 -16 -34 -16 -54 0 -29 6 -41 33 -61 39 -30 60 -33
53 -8 -2 9 -12 43 -20 74 -19 66 -27 74 -50 49z"/>
<path d="M8862 8072 c-15 -51 -11 -77 7 -44 7 13 11 37 9 55 l-4 32 -12 -43z"/>
<path d="M8660 7991 c0 -6 4 -13 10 -16 6 -3 7 1 4 9 -7 18 -14 21 -14 7z"/>
<path d="M3315 7969 c-4 -6 -5 -12 -2 -15 2 -3 7 2 10 11 7 17 1 20 -8 4z"/>
<path d="M3243 7823 c-150 -318 -231 -596 -280 -953 -26 -196 -24 -610 5 -798
58 -375 140 -638 297 -953 391 -785 1107 -1369 1956 -1593 162 -43 381 -80
527 -90 l72 -5 0 69 0 70 -48 0 c-45 0 -149 14 -297 41 -174 32 -435 111 -635
194 -83 34 -308 154 -408 216 -464 289 -857 720 -1100 1204 -163 326 -252 616
-308 1005 -23 159 -23 577 0 745 37 271 102 521 196 760 25 63 76 179 87 198
2 4 1 7 -2 7 -4 0 -31 -53 -62 -117z"/>
<path d="M8711 7897 c-1 -4 9 -27 20 -50 24 -45 90 -217 121 -312 53 -166 105
-410 129 -605 17 -148 15 -536 -5 -685 -75 -576 -295 -1105 -638 -1532 -47
-59 -58 -80 -58 -109 0 -29 -7 -44 -33 -68 -19 -17 -46 -32 -62 -34 -36 -3
-65 -29 -65 -59 0 -12 -4 -23 -10 -23 -5 0 -7 -6 -4 -14 10 -27 -68 -78 -94
-62 -5 3 -26 -9 -47 -26 -35 -29 -36 -32 -19 -45 23 -17 12 -28 -14 -12 -17
11 -26 7 -73 -32 -30 -24 -56 -45 -59 -47 -2 -1 8 -13 23 -26 15 -13 30 -39
34 -59 l8 -37 100 84 c421 352 769 863 933 1366 116 357 155 604 155 980 0
389 -45 664 -169 1022 -41 117 -171 407 -173 385z m-791 -3682 c-6 -7 -19 -12
-28 -10 -9 2 -21 4 -25 4 -5 1 -5 6 -2 11 4 6 10 8 14 6 4 -3 13 -1 21 4 19
12 33 1 20 -15z"/>
<path d="M3775 7553 c-294 -39 -492 -156 -616 -363 -37 -63 -79 -167 -79 -198
0 -23 196 -10 274 17 162 57 296 191 406 405 56 108 70 148 53 145 -5 -1 -21
-4 -38 -6z"/>
<path d="M8170 7555 c0 -3 21 -47 46 -98 123 -245 246 -375 419 -445 77 -31
285 -45 285 -19 0 22 -52 147 -84 201 -102 175 -292 300 -514 340 -134 25
-152 27 -152 21z"/>
<path d="M2370 7484 c0 -70 27 -218 53 -292 67 -192 212 -356 408 -461 l77
-41 11 44 c16 66 14 238 -5 310 -32 126 -119 245 -238 331 -64 45 -228 128
-278 140 -27 7 -28 6 -28 -31z"/>
<path d="M9550 7496 c-253 -104 -402 -245 -461 -439 -18 -59 -21 -86 -17 -200
6 -174 6 -173 71 -140 182 91 345 257 409 417 44 108 77 261 78 354 0 38 -5
38 -80 8z"/>
<path d="M6214 7357 c-161 -9 -173 -11 -181 -31 -6 -11 -32 -95 -58 -186 -27
-91 -53 -168 -59 -172 -17 -12 -296 -10 -296 2 0 6 5 10 10 10 6 0 10 42 10
105 0 86 -3 106 -16 113 -11 6 -18 27 -22 60 -3 38 -11 57 -30 74 l-26 23 22
-29 c25 -33 31 -123 10 -131 -19 -8 -12 -207 8 -218 27 -15 14 -27 -28 -27
-56 -1 -117 -15 -135 -32 -11 -12 -11 -21 2 -57 8 -24 15 -45 15 -46 0 -1 -25
-15 -55 -29 -30 -15 -68 -44 -85 -65 -44 -57 -37 -55 23 5 84 84 183 102 290
54 69 -31 128 -96 144 -160 l9 -35 75 -3 c41 -2 115 -1 165 3 l91 7 0 51 c-3
225 202 402 415 358 34 -7 76 -20 93 -28 148 -76 232 -257 189 -405 -4 -13 0
-18 14 -18 56 0 38 200 -29 317 -31 55 -88 110 -151 146 -30 18 -38 29 -43 62
-3 22 -13 83 -21 135 -8 52 -17 110 -20 128 l-5 32 -77 -2 c-42 -1 -154 -6
-248 -11z m300 -40 c7 -12 19 -56 26 -97 7 -41 16 -93 21 -115 12 -61 3 -65
-128 -65 -87 0 -115 3 -119 14 -3 7 -6 71 -7 142 l-2 129 70 5 c39 3 82 6 98
7 19 1 32 -5 41 -20z m-262 1 c23 -19 33 -282 11 -304 -19 -19 -245 -21 -261
-1 -7 8 -6 31 3 72 7 33 20 96 29 140 10 44 20 83 24 87 4 4 43 9 87 11 44 1
83 4 86 5 3 1 12 -4 21 -10z"/>
<path d="M3633 6995 c-127 -40 -284 -159 -362 -274 -92 -136 -152 -292 -196
-513 -4 -24 16 -23 101 3 128 38 212 87 299 174 139 138 192 272 220 563 7 69
7 69 -62 47z"/>
<path d="M8300 6974 c0 -118 42 -299 97 -413 60 -126 170 -239 285 -294 84
-40 190 -77 224 -77 20 0 21 3 13 43 -11 60 -45 182 -69 251 -67 188 -204 366
-346 447 -50 28 -174 79 -194 79 -6 0 -10 -16 -10 -36z"/>
<path d="M6400 6969 c-66 -10 -116 -35 -167 -82 -62 -57 -94 -123 -100 -211
-9 -123 39 -223 140 -291 l52 -35 -150 0 c-125 0 -335 -10 -507 -23 -37 -3
-49 5 -28 18 6 4 8 11 4 16 -3 5 -2 9 3 8 23 -4 34 5 57 44 85 148 8 325 -156
359 -67 14 -146 -7 -198 -51 -29 -26 -33 -32 -20 -41 13 -9 12 -10 -5 -8 -30
5 -54 -54 -54 -132 0 -84 28 -142 92 -190 56 -42 52 -44 -83 -54 -52 -4 -124
-11 -160 -16 -36 -5 -108 -14 -160 -20 -436 -52 -1070 -172 -1555 -295 -197
-50 -181 -25 -134 -205 224 -855 828 -1548 1644 -1886 206 -85 397 -137 655
-180 150 -25 567 -30 727 -10 363 47 639 132 953 292 163 83 475 288 475 312
1 16 17 32 28 26 7 -3 -3 9 -22 27 -20 20 -29 35 -22 37 7 2 21 -6 31 -18 15
-18 23 -20 33 -11 8 6 17 8 20 4 10 -10 47 28 47 48 0 22 16 33 25 19 10 -16
45 18 45 44 1 25 27 58 59 76 19 10 22 10 15 -2 -6 -10 -3 -10 12 1 46 35 74
66 74 82 0 22 47 79 65 79 7 0 43 41 80 90 163 220 295 467 392 730 45 125
123 431 123 486 0 19 -368 115 -690 180 -125 25 -153 30 -330 58 -183 30 -541
71 -695 81 -49 3 -119 7 -155 10 -36 2 -114 7 -173 11 l-108 6 43 27 c50 32
90 76 121 135 17 33 21 58 22 136 0 113 -18 161 -86 229 -72 72 -176 105 -279
90z m111 -121 c86 -29 142 -105 141 -192 -1 -124 -94 -213 -214 -204 -176 13
-253 223 -126 345 60 58 129 76 199 51z m-919 -189 c38 -27 58 -69 58 -119 0
-136 -161 -199 -256 -99 -26 27 -29 36 -27 92 1 74 6 108 12 101 2 -2 14 5 26
16 47 44 132 48 187 9z m1358 -429 c153 -12 383 -35 510 -51 168 -21 499 -75
533 -88 12 -4 -145 -8 -348 -7 -204 1 -464 -3 -578 -8 l-209 -8 5 -32 c2 -17
0 -41 -4 -54 -8 -22 -7 -23 18 -18 113 23 1263 29 1263 6 0 -3 -35 -12 -77
-19 -447 -73 -922 -194 -1343 -341 -113 -40 -220 -77 -237 -83 -25 -8 -33 -16
-33 -34 0 -33 -14 -57 -46 -78 -30 -19 -81 -28 -89 -15 -7 11 31 23 44 16 13
-8 58 34 66 62 8 29 -7 28 -59 -2 -23 -13 -57 -26 -76 -30 -57 -10 -68 -21
-45 -45 26 -30 10 -39 -20 -11 l-25 23 -60 -24 c-33 -13 -60 -27 -60 -31 0 -4
8 -13 18 -20 9 -7 23 -21 31 -30 24 -32 -9 -21 -40 13 -23 25 -34 30 -49 23
-18 -8 -17 -12 16 -47 34 -37 35 -37 67 -23 233 107 726 283 1037 371 391 110
1055 248 1122 234 9 -2 -47 -33 -125 -68 -363 -165 -710 -346 -1069 -559 -172
-102 -225 -142 -188 -142 6 0 10 -5 10 -12 0 -7 -7 -5 -18 5 -17 15 -25 12
-123 -52 -225 -145 -603 -431 -784 -592 -183 -163 -363 -343 -516 -515 l-99
-111 -68 18 c-185 47 -365 116 -549 210 -154 78 -367 215 -358 230 11 16 437
296 625 410 228 138 439 254 681 374 l196 98 -30 27 c-19 17 -27 31 -22 39 6
11 9 10 16 0 6 -11 9 -10 15 4 3 10 4 20 1 23 -5 6 -295 -135 -467 -226 -327
-174 -702 -405 -1013 -623 l-99 -69 -26 24 c-15 13 -65 58 -111 99 -72 63
-198 196 -278 292 -83 99 -200 274 -270 403 l-45 84 29 11 c265 106 599 221
868 298 77 23 154 45 170 50 45 15 297 77 405 101 52 11 113 25 135 30 189 45
639 122 850 146 33 3 64 9 69 12 5 3 38 7 75 9 36 2 98 8 136 13 39 5 107 12
153 16 45 3 84 10 87 15 3 4 34 6 70 4 l64 -4 -15 34 c-7 19 -11 41 -7 51 5
15 -3 16 -88 10 -102 -8 -315 -30 -444 -46 -44 -6 -96 -12 -115 -14 -353 -41
-934 -155 -1312 -257 -84 -22 -162 -43 -173 -46 -70 -18 -221 -65 -425 -133
-229 -75 -268 -89 -473 -170 l-97 -39 -14 27 c-46 90 -112 277 -149 425 l-15
57 26 6 c15 3 50 12 77 19 53 14 194 46 310 71 39 8 97 21 130 29 579 135
1495 254 2080 269 211 6 835 -4 975 -14z m1656 -357 c-3 -10 -17 -61 -30 -113
-92 -348 -270 -698 -503 -990 -173 -218 -462 -470 -713 -620 -455 -274 -1010
-412 -1529 -380 -160 10 -305 28 -330 40 -10 5 11 34 77 106 111 122 370 376
477 470 44 38 82 71 85 74 13 15 218 177 326 257 242 182 616 424 889 576 50
27 110 61 135 75 204 114 691 348 960 461 41 18 89 38 105 46 42 19 57 18 51
-2z m-1671 -793 c3 -5 1 -10 -4 -10 -6 0 -11 5 -11 10 0 6 2 10 4 10 3 0 8 -4
11 -10z"/>
<path d="M6407 6692 c-23 -25 -21 -58 3 -82 39 -39 100 -14 100 43 0 52 -68
78 -103 39z m69 -27 c9 -9 11 -15 4 -15 -6 0 -9 -4 -6 -9 8 -13 -18 -21 -35
-10 -8 4 -15 17 -15 29 -2 24 30 27 52 5z"/>
<path d="M5465 6561 c-12 -38 3 -61 37 -58 63 5 63 69 0 75 -23 2 -32 -2 -37
-17z m55 -27 c0 -17 -36 -19 -46 -2 -4 6 -3 8 3 5 6 -4 14 0 17 9 7 18 26 10
26 -12z"/>
<path d="M6761 6014 l-56 -54 56 0 c65 0 74 8 81 66 8 57 -12 54 -81 -12z"/>
<path d="M6687 6053 c-9 -9 -8 -55 1 -70 6 -9 21 0 51 32 l43 45 -44 0 c-25 0
-48 -3 -51 -7z"/>
<path d="M5938 5299 c-34 -18 -38 -23 -38 -60 0 -26 5 -42 15 -46 17 -6 144
47 145 60 0 14 -57 67 -72 67 -7 -1 -30 -10 -50 -21z"/>
<path d="M2190 6631 c0 -54 28 -177 59 -257 68 -176 199 -321 401 -447 74 -45
180 -97 250 -122 l36 -13 -4 67 c-2 36 -13 104 -23 150 -70 306 -263 510 -582
618 -125 41 -137 42 -137 4z"/>
<path d="M9685 6631 c-216 -74 -357 -170 -460 -316 -94 -133 -143 -273 -160
-457 l-5 -67 30 11 c17 6 93 41 168 79 266 133 432 310 510 545 18 53 42 179
42 218 0 23 -32 19 -125 -13z"/>
<path d="M2173 5616 c-40 -7 -75 -14 -78 -17 -9 -10 76 -132 139 -197 136
-142 303 -224 546 -268 92 -16 400 -31 400 -20 0 4 -24 42 -52 84 -94 138
-246 276 -373 339 -160 81 -387 111 -582 79z"/>
<path d="M9470 5611 c-121 -25 -198 -54 -287 -108 -124 -74 -315 -277 -356
-377 -7 -18 -2 -19 150 -13 165 6 260 18 353 44 177 48 301 115 419 227 77 74
162 200 144 216 -14 13 -160 30 -251 29 -48 0 -125 -9 -172 -18z"/>
<path d="M2563 4926 c-35 -7 -66 -15 -69 -19 -4 -3 8 -30 26 -59 159 -261 415
-420 766 -478 93 -16 324 -29 377 -22 l48 7 -69 106 c-152 233 -332 374 -569
445 -78 24 -108 27 -268 30 -120 2 -201 -1 -242 -10z"/>
<path d="M9055 4934 c-161 -25 -318 -90 -440 -184 -109 -84 -248 -249 -308
-366 l-16 -31 54 -6 c61 -6 266 6 366 22 288 46 521 168 673 350 57 69 126
169 126 184 0 3 -17 11 -37 17 -39 11 -363 22 -418 14z"/>
<path d="M8216 4565 c-25 -30 -32 -45 -23 -45 18 0 67 56 67 76 0 21 -4 18
-44 -31z"/>
<path d="M7940 4495 c-13 -14 -19 -25 -13 -25 5 0 20 11 33 25 13 14 19 25 13
25 -5 0 -20 -11 -33 -25z"/>
<path d="M8057 4402 c-44 -45 -47 -58 -9 -38 25 13 59 63 49 72 -2 2 -20 -13
-40 -34z"/>
<path d="M8105 4063 c-66 -57 -121 -108 -123 -113 -3 -7 274 -332 287 -338 4
-1 64 48 135 109 l128 112 -25 25 -25 25 -29 -22 c-15 -13 -48 -41 -73 -64
-25 -22 -55 -49 -67 -60 l-23 -20 -39 44 c-22 24 -40 47 -41 50 0 4 38 40 83
81 l84 75 -23 28 -22 28 -82 -71 c-44 -40 -86 -72 -93 -71 -7 0 -25 16 -40 34
l-28 34 38 34 c21 19 61 54 90 78 28 24 52 47 52 51 1 4 -9 18 -21 32 l-23 25
-120 -106z"/>
<path d="M7707 4117 c-52 -37 -56 -43 -41 -54 38 -28 100 -5 113 41 8 31 4 57
-8 55 -3 0 -32 -19 -64 -42z"/>
<path d="M7807 4133 c-4 -3 -7 -16 -7 -28 0 -52 -89 -91 -136 -60 -24 16 -54
14 -54 -2 0 -4 16 -25 36 -45 45 -48 22 -50 -27 -2 l-36 35 -51 -32 c-29 -18
-52 -35 -52 -38 0 -3 22 -27 48 -53 l47 -47 87 57 c74 49 130 91 91 68 -6 -3
-14 -2 -18 4 -3 6 3 10 16 10 12 0 37 9 56 21 28 18 33 26 31 54 -2 35 -21 69
-31 58z"/>
<path d="M3666 3954 l-208 -106 33 -34 32 -33 48 25 c26 15 52 25 57 23 5 -2
38 -30 72 -62 l62 -58 -21 -51 -21 -51 32 -28 c18 -16 36 -28 39 -29 3 0 43
102 88 227 l83 227 -33 28 c-19 15 -38 27 -44 27 -5 0 -104 -47 -219 -105z
m184 -12 c0 -9 -55 -140 -62 -147 -3 -3 -25 12 -49 34 -24 21 -42 41 -39 44 9
9 135 77 143 77 4 0 7 -4 7 -8z"/>
<path d="M7420 3935 c-18 -10 -20 -14 -8 -15 28 0 78 -49 78 -76 0 -28 7 -30
39 -8 l23 16 -48 49 c-27 27 -51 49 -54 49 -3 -1 -16 -7 -30 -15z"/>
<path d="M7346 3893 c-42 -22 -47 -90 -10 -127 21 -22 31 -20 90 14 44 25 51
32 47 54 -10 53 -78 85 -127 59z"/>
<path d="M7175 3815 c-187 -84 -368 -141 -635 -201 -55 -13 -284 -44 -320 -44
-45 0 -50 -9 -50 -86 l0 -54 78 6 c243 19 523 78 767 164 100 35 297 118 309
130 5 5 -9 25 -33 48 -45 43 -51 57 -21 47 15 -5 20 -2 20 13 0 11 6 23 13 25
6 3 8 5 2 5 -5 0 -64 -24 -130 -53z"/>
<path d="M7783 3795 c-56 -24 -215 -136 -210 -148 3 -7 57 -92 121 -190 124
-190 117 -184 171 -144 19 15 18 16 -16 68 -79 120 -74 106 -40 123 43 23 57
21 161 -24 l94 -40 44 29 45 29 -69 32 c-38 17 -89 36 -114 42 -25 6 -46 12
-48 13 -2 2 8 20 23 40 14 21 25 45 25 54 -1 29 -37 98 -61 115 -28 19 -83 20
-126 1z m77 -85 c26 -26 25 -62 -2 -87 -28 -25 -100 -73 -110 -73 -7 0 -68 84
-68 93 0 5 109 72 130 80 25 9 29 8 50 -13z"/>
<path d="M4140 3759 c-76 -30 -150 -147 -150 -237 0 -69 18 -109 69 -155 56
-50 120 -77 185 -77 l53 0 47 70 c25 38 46 72 46 75 0 6 -147 105 -157 105 -5
0 -17 -13 -26 -29 l-17 -30 45 -26 45 -27 -17 -30 c-16 -25 -22 -29 -50 -25
-137 22 -179 123 -100 241 57 87 116 102 194 52 35 -23 53 -54 53 -91 0 -19 9
-28 36 -40 20 -8 38 -15 40 -15 11 0 14 74 4 104 -15 45 -96 119 -148 134 -47
14 -117 15 -152 1z"/>
<path d="M7398 3573 c-21 -8 -38 -19 -38 -23 0 -5 27 -68 61 -140 34 -72 63
-148 66 -169 4 -32 1 -41 -22 -59 -37 -30 -89 -38 -118 -19 -14 9 -47 69 -87
156 -35 78 -67 144 -71 147 -7 4 -79 -23 -79 -31 0 -21 153 -316 174 -335 23
-21 37 -25 89 -25 73 1 128 26 175 80 52 58 42 108 -65 331 l-48 102 -37 -15z"/>
<path d="M4601 3518 c-22 -50 -61 -135 -125 -271 l-46 -98 35 -15 c19 -7 38
-14 42 -14 4 0 24 36 43 80 19 44 41 80 48 80 25 0 61 -32 71 -63 6 -18 15
-69 22 -113 l12 -82 46 -20 c25 -12 46 -20 47 -19 5 5 -27 189 -36 207 -17 31
-12 35 39 35 56 0 85 20 107 72 36 84 -3 134 -164 210 -62 29 -115 53 -117 53
-3 0 -14 -19 -24 -42z m222 -149 c7 -10 5 -25 -4 -45 -19 -40 -53 -41 -134 -5
-57 26 -65 33 -57 48 6 10 17 35 26 56 l15 38 73 -38 c39 -21 76 -45 81 -54z"/>
<path d="M6870 3364 c-63 -19 -132 -39 -153 -45 -34 -9 -37 -12 -31 -37 10
-41 15 -43 78 -26 32 8 62 12 67 7 4 -4 12 -26 17 -48 8 -33 83 -295 87 -302
1 -3 78 18 83 21 1 2 -21 81 -48 176 -28 95 -49 178 -47 184 3 6 28 18 56 25
58 15 64 20 55 56 -8 33 -22 32 -164 -11z"/>
<path d="M5069 3353 c-5 -13 -9 -28 -9 -32 0 -5 -22 -87 -50 -182 -27 -96 -50
-179 -50 -186 0 -11 69 -37 77 -29 9 8 125 427 120 432 -3 3 -22 9 -42 14 -33
7 -37 6 -46 -17z"/>
<path d="M5375 3278 c-63 -34 -105 -98 -124 -187 -23 -110 26 -217 114 -249
105 -37 199 -11 240 69 15 28 15 29 -23 48 l-39 20 -12 -23 c-15 -28 -61 -56
-93 -56 -12 0 -37 9 -55 20 -43 26 -58 80 -44 157 20 104 62 148 136 139 41
-5 85 -42 85 -72 0 -10 13 -14 46 -14 l47 0 -7 33 c-15 78 -87 127 -186 127
-36 -1 -74 -6 -85 -12z"/>
<path d="M6313 3263 c-18 -2 -33 -8 -33 -13 0 -11 48 -354 56 -404 l7 -38 51
6 c28 4 99 13 158 22 l107 16 -6 32 c-3 17 -7 33 -9 34 -1 2 -51 -3 -110 -12
-59 -9 -109 -14 -112 -12 -2 3 -16 88 -30 190 -16 115 -30 185 -36 184 -6 0
-26 -3 -43 -5z"/>
<path d="M5796 3226 c-3 -13 -6 -93 -7 -179 -1 -210 14 -237 140 -258 68 -11
132 1 165 29 41 38 48 70 54 249 l5 173 -42 0 c-32 0 -41 -4 -42 -17 -13 -346
-18 -363 -97 -363 -92 1 -103 28 -95 234 l6 156 -40 0 c-35 0 -42 -4 -47 -24z"/>
</g>
</svg>
